<mxfile host="app.diagrams.net" modified="2023-10-10T05:38:21.936Z" agent="Mozilla/5.0 (Windows NT 10.0; Win64; x64) AppleWebKit/537.36 (KHTML, like Gecko) Chrome/114.0.0.0 Safari/537.36" etag="6pc2OXuV4bbkwn4-suJ3" version="22.0.4" type="github">
  <diagram id="C5RBs43oDa-KdzZeNtuy" name="Page-1">
    <mxGraphModel dx="2261" dy="764" grid="1" gridSize="10" guides="1" tooltips="1" connect="1" arrows="1" fold="1" page="1" pageScale="1" pageWidth="827" pageHeight="1169" math="0" shadow="0">
      <root>
        <mxCell id="WIyWlLk6GJQsqaUBKTNV-0" />
        <mxCell id="WIyWlLk6GJQsqaUBKTNV-1" parent="WIyWlLk6GJQsqaUBKTNV-0" />
        <mxCell id="sk_vlZ7DNsltoj-pn9vt-3" value="" style="edgeStyle=orthogonalEdgeStyle;rounded=0;orthogonalLoop=1;jettySize=auto;html=1;" edge="1" parent="WIyWlLk6GJQsqaUBKTNV-1" source="sk_vlZ7DNsltoj-pn9vt-1" target="sk_vlZ7DNsltoj-pn9vt-2">
          <mxGeometry relative="1" as="geometry" />
        </mxCell>
        <mxCell id="sk_vlZ7DNsltoj-pn9vt-1" value="StartupXLOG Leader" style="rounded=1;whiteSpace=wrap;html=1;" vertex="1" parent="WIyWlLk6GJQsqaUBKTNV-1">
          <mxGeometry x="200" y="110" width="120" height="60" as="geometry" />
        </mxCell>
        <mxCell id="sk_vlZ7DNsltoj-pn9vt-5" value="" style="edgeStyle=orthogonalEdgeStyle;rounded=0;orthogonalLoop=1;jettySize=auto;html=1;" edge="1" parent="WIyWlLk6GJQsqaUBKTNV-1" source="sk_vlZ7DNsltoj-pn9vt-2" target="sk_vlZ7DNsltoj-pn9vt-4">
          <mxGeometry relative="1" as="geometry" />
        </mxCell>
        <mxCell id="sk_vlZ7DNsltoj-pn9vt-2" value="Verufy pg_controldata state" style="rounded=1;whiteSpace=wrap;html=1;" vertex="1" parent="WIyWlLk6GJQsqaUBKTNV-1">
          <mxGeometry x="160" y="240" width="200" height="60" as="geometry" />
        </mxCell>
        <mxCell id="sk_vlZ7DNsltoj-pn9vt-7" value="" style="edgeStyle=orthogonalEdgeStyle;rounded=0;orthogonalLoop=1;jettySize=auto;html=1;" edge="1" parent="WIyWlLk6GJQsqaUBKTNV-1" source="sk_vlZ7DNsltoj-pn9vt-4" target="sk_vlZ7DNsltoj-pn9vt-6">
          <mxGeometry relative="1" as="geometry" />
        </mxCell>
        <mxCell id="sk_vlZ7DNsltoj-pn9vt-4" value="Reset crash env" style="rounded=1;whiteSpace=wrap;html=1;" vertex="1" parent="WIyWlLk6GJQsqaUBKTNV-1">
          <mxGeometry x="160" y="380" width="200" height="60" as="geometry" />
        </mxCell>
        <mxCell id="sk_vlZ7DNsltoj-pn9vt-18" value="" style="edgeStyle=orthogonalEdgeStyle;rounded=0;orthogonalLoop=1;jettySize=auto;html=1;" edge="1" parent="WIyWlLk6GJQsqaUBKTNV-1" source="sk_vlZ7DNsltoj-pn9vt-6" target="sk_vlZ7DNsltoj-pn9vt-17">
          <mxGeometry relative="1" as="geometry" />
        </mxCell>
        <mxCell id="sk_vlZ7DNsltoj-pn9vt-6" value="Read recovery config" style="rounded=1;whiteSpace=wrap;html=1;" vertex="1" parent="WIyWlLk6GJQsqaUBKTNV-1">
          <mxGeometry x="160" y="520" width="200" height="60" as="geometry" />
        </mxCell>
        <mxCell id="sk_vlZ7DNsltoj-pn9vt-21" value="" style="edgeStyle=orthogonalEdgeStyle;rounded=0;orthogonalLoop=1;jettySize=auto;html=1;" edge="1" parent="WIyWlLk6GJQsqaUBKTNV-1" source="sk_vlZ7DNsltoj-pn9vt-17" target="sk_vlZ7DNsltoj-pn9vt-20">
          <mxGeometry relative="1" as="geometry" />
        </mxCell>
        <mxCell id="sk_vlZ7DNsltoj-pn9vt-23" value="" style="edgeStyle=orthogonalEdgeStyle;rounded=0;orthogonalLoop=1;jettySize=auto;html=1;" edge="1" parent="WIyWlLk6GJQsqaUBKTNV-1" source="sk_vlZ7DNsltoj-pn9vt-17" target="sk_vlZ7DNsltoj-pn9vt-22">
          <mxGeometry relative="1" as="geometry" />
        </mxCell>
        <mxCell id="sk_vlZ7DNsltoj-pn9vt-25" value="" style="edgeStyle=orthogonalEdgeStyle;rounded=0;orthogonalLoop=1;jettySize=auto;html=1;" edge="1" parent="WIyWlLk6GJQsqaUBKTNV-1" source="sk_vlZ7DNsltoj-pn9vt-17" target="sk_vlZ7DNsltoj-pn9vt-24">
          <mxGeometry relative="1" as="geometry" />
        </mxCell>
        <mxCell id="sk_vlZ7DNsltoj-pn9vt-17" value="Check recovery mode" style="rhombus;whiteSpace=wrap;html=1;rounded=1;" vertex="1" parent="WIyWlLk6GJQsqaUBKTNV-1">
          <mxGeometry x="140" y="660" width="240" height="80" as="geometry" />
        </mxCell>
        <mxCell id="sk_vlZ7DNsltoj-pn9vt-30" style="edgeStyle=orthogonalEdgeStyle;rounded=0;orthogonalLoop=1;jettySize=auto;html=1;entryX=0;entryY=0.5;entryDx=0;entryDy=0;" edge="1" parent="WIyWlLk6GJQsqaUBKTNV-1" source="sk_vlZ7DNsltoj-pn9vt-20" target="sk_vlZ7DNsltoj-pn9vt-26">
          <mxGeometry relative="1" as="geometry">
            <Array as="points">
              <mxPoint x="-70" y="1000" />
            </Array>
          </mxGeometry>
        </mxCell>
        <mxCell id="sk_vlZ7DNsltoj-pn9vt-20" value="crash recovery" style="whiteSpace=wrap;html=1;rounded=1;" vertex="1" parent="WIyWlLk6GJQsqaUBKTNV-1">
          <mxGeometry x="-130" y="830" width="120" height="60" as="geometry" />
        </mxCell>
        <mxCell id="sk_vlZ7DNsltoj-pn9vt-27" value="" style="edgeStyle=orthogonalEdgeStyle;rounded=0;orthogonalLoop=1;jettySize=auto;html=1;" edge="1" parent="WIyWlLk6GJQsqaUBKTNV-1" source="sk_vlZ7DNsltoj-pn9vt-22" target="sk_vlZ7DNsltoj-pn9vt-26">
          <mxGeometry relative="1" as="geometry" />
        </mxCell>
        <mxCell id="sk_vlZ7DNsltoj-pn9vt-22" value="archive recovery" style="whiteSpace=wrap;html=1;rounded=1;" vertex="1" parent="WIyWlLk6GJQsqaUBKTNV-1">
          <mxGeometry x="200" y="830" width="120" height="60" as="geometry" />
        </mxCell>
        <mxCell id="sk_vlZ7DNsltoj-pn9vt-31" style="edgeStyle=orthogonalEdgeStyle;rounded=0;orthogonalLoop=1;jettySize=auto;html=1;entryX=1;entryY=0.5;entryDx=0;entryDy=0;" edge="1" parent="WIyWlLk6GJQsqaUBKTNV-1" source="sk_vlZ7DNsltoj-pn9vt-24" target="sk_vlZ7DNsltoj-pn9vt-26">
          <mxGeometry relative="1" as="geometry">
            <Array as="points">
              <mxPoint x="605" y="1000" />
            </Array>
          </mxGeometry>
        </mxCell>
        <mxCell id="sk_vlZ7DNsltoj-pn9vt-24" value="basebackup recovery" style="whiteSpace=wrap;html=1;rounded=1;" vertex="1" parent="WIyWlLk6GJQsqaUBKTNV-1">
          <mxGeometry x="530" y="830" width="150" height="60" as="geometry" />
        </mxCell>
        <mxCell id="sk_vlZ7DNsltoj-pn9vt-29" value="" style="edgeStyle=orthogonalEdgeStyle;rounded=0;orthogonalLoop=1;jettySize=auto;html=1;" edge="1" parent="WIyWlLk6GJQsqaUBKTNV-1" source="sk_vlZ7DNsltoj-pn9vt-26" target="sk_vlZ7DNsltoj-pn9vt-28">
          <mxGeometry relative="1" as="geometry" />
        </mxCell>
        <mxCell id="sk_vlZ7DNsltoj-pn9vt-26" value="Clean env" style="whiteSpace=wrap;html=1;rounded=1;" vertex="1" parent="WIyWlLk6GJQsqaUBKTNV-1">
          <mxGeometry x="200" y="970" width="120" height="60" as="geometry" />
        </mxCell>
        <mxCell id="sk_vlZ7DNsltoj-pn9vt-33" value="" style="edgeStyle=orthogonalEdgeStyle;rounded=0;orthogonalLoop=1;jettySize=auto;html=1;" edge="1" parent="WIyWlLk6GJQsqaUBKTNV-1" source="sk_vlZ7DNsltoj-pn9vt-28" target="sk_vlZ7DNsltoj-pn9vt-32">
          <mxGeometry relative="1" as="geometry" />
        </mxCell>
        <mxCell id="sk_vlZ7DNsltoj-pn9vt-28" value="load redo start loc:&lt;br&gt;1. checkPointLoc&lt;br&gt;2. RedoStartLsn&lt;br&gt;3. minRecoveryPoint&lt;br&gt;4. ThisTimelineID" style="whiteSpace=wrap;html=1;rounded=1;align=center;" vertex="1" parent="WIyWlLk6GJQsqaUBKTNV-1">
          <mxGeometry x="115" y="1100" width="290" height="100" as="geometry" />
        </mxCell>
        <mxCell id="sk_vlZ7DNsltoj-pn9vt-35" value="" style="edgeStyle=orthogonalEdgeStyle;rounded=0;orthogonalLoop=1;jettySize=auto;html=1;" edge="1" parent="WIyWlLk6GJQsqaUBKTNV-1" source="sk_vlZ7DNsltoj-pn9vt-32" target="sk_vlZ7DNsltoj-pn9vt-34">
          <mxGeometry relative="1" as="geometry" />
        </mxCell>
        <mxCell id="sk_vlZ7DNsltoj-pn9vt-32" value="Check redo validable" style="whiteSpace=wrap;html=1;rounded=1;align=center;" vertex="1" parent="WIyWlLk6GJQsqaUBKTNV-1">
          <mxGeometry x="171.25" y="1280" width="177.5" height="40" as="geometry" />
        </mxCell>
        <mxCell id="sk_vlZ7DNsltoj-pn9vt-37" value="" style="edgeStyle=orthogonalEdgeStyle;rounded=0;orthogonalLoop=1;jettySize=auto;html=1;" edge="1" parent="WIyWlLk6GJQsqaUBKTNV-1" source="sk_vlZ7DNsltoj-pn9vt-34" target="sk_vlZ7DNsltoj-pn9vt-36">
          <mxGeometry relative="1" as="geometry" />
        </mxCell>
        <mxCell id="sk_vlZ7DNsltoj-pn9vt-34" value="Redo" style="whiteSpace=wrap;html=1;rounded=1;align=center;" vertex="1" parent="WIyWlLk6GJQsqaUBKTNV-1">
          <mxGeometry x="171.25" y="1400" width="177.5" height="40" as="geometry" />
        </mxCell>
        <mxCell id="sk_vlZ7DNsltoj-pn9vt-36" value="" style="rhombus;whiteSpace=wrap;html=1;rounded=1;" vertex="1" parent="WIyWlLk6GJQsqaUBKTNV-1">
          <mxGeometry x="120" y="1500" width="280" height="80" as="geometry" />
        </mxCell>
      </root>
    </mxGraphModel>
  </diagram>
</mxfile>
